<?xml version="1.0" encoding="iso-8859-1"?>
<!-- Generator: Adobe Illustrator 19.0.0, SVG Export Plug-In . SVG Version: 6.00 Build 0)  -->
<svg version="1.1" id="Layer_1" xmlns="http://www.w3.org/2000/svg" xmlns:xlink="http://www.w3.org/1999/xlink" x="0px" y="0px"
	 viewBox="0 0 512 512" style="enable-background:new 0 0 512 512;" xml:space="preserve">
<rect x="10.199" y="106.072" style="fill:#9CDCFF;" width="491.602" height="299.857"/>
<g>
	<path style="fill:#3B404F;" d="M501.801,416.128H10.199C4.566,416.128,0,411.561,0,405.928V106.072
		c0-5.633,4.566-10.199,10.199-10.199h491.602c5.633,0,10.199,4.566,10.199,10.199v299.857
		C512,411.561,507.434,416.128,501.801,416.128z M20.398,395.729h471.203V116.271H20.398V395.729z"/>
	<path style="fill:#3B404F;" d="M367.325,252.995c-1.976,0-3.971-0.572-5.727-1.766l-50.053-34.043l-49.79,34.031
		c-3.47,2.371-8.04,2.371-11.51,0l-49.79-34.031l-50.053,34.043c-4.659,3.168-11.002,1.959-14.17-2.698
		c-3.168-4.658-1.96-11.002,2.698-14.17l55.803-37.954c3.469-2.359,8.028-2.354,11.491,0.013L256,230.442l49.777-34.02
		c3.464-2.366,8.023-2.372,11.491-0.013l55.803,37.954c4.657,3.168,5.865,9.512,2.698,14.17
		C373.795,251.433,370.588,252.995,367.325,252.995z"/>
	<path style="fill:#3B404F;" d="M416.842,305.976h-7.854c-5.633,0-10.199-4.566-10.199-10.199c0-5.633,4.566-10.199,10.199-10.199
		h7.854c5.633,0,10.199,4.566,10.199,10.199C427.042,301.41,422.475,305.976,416.842,305.976z"/>
	<path style="fill:#3B404F;" d="M370.231,305.976H95.158c-5.633,0-10.199-4.566-10.199-10.199c0-5.633,4.566-10.199,10.199-10.199
		h275.074c5.633,0,10.199,4.566,10.199,10.199C380.43,301.41,375.864,305.976,370.231,305.976z"/>
</g>
<g>
</g>
<g>
</g>
<g>
</g>
<g>
</g>
<g>
</g>
<g>
</g>
<g>
</g>
<g>
</g>
<g>
</g>
<g>
</g>
<g>
</g>
<g>
</g>
<g>
</g>
<g>
</g>
<g>
</g>
</svg>
