<?xml version="1.0" encoding="iso-8859-1"?>
<!-- Generator: Adobe Illustrator 19.0.0, SVG Export Plug-In . SVG Version: 6.00 Build 0)  -->
<svg version="1.1" id="Layer_1" xmlns="http://www.w3.org/2000/svg" xmlns:xlink="http://www.w3.org/1999/xlink" x="0px" y="0px"
	 viewBox="0 0 512 512" style="enable-background:new 0 0 512 512;" xml:space="preserve">
<rect x="10.199" y="116.557" style="fill:#9CDCFF;" width="491.602" height="278.887"/>
<path style="fill:#FFFFFF;" d="M68.849,350.118c0-40.795,41.253-73.865,92.141-73.865s92.141,33.071,92.141,73.865H68.849z"/>
<circle style="fill:#FFE049;" cx="160.128" cy="203.107" r="42.837"/>
<g>
	<path style="fill:#3B404F;" d="M501.801,106.357H10.199C4.566,106.357,0,110.924,0,116.556v278.888
		c0,5.632,4.566,10.199,10.199,10.199h491.602c5.633,0,10.199-4.567,10.199-10.199V116.556
		C512,110.924,507.434,106.357,501.801,106.357z M491.602,385.246H20.398V126.755h471.203V385.246z"/>
	<path style="fill:#3B404F;" d="M311.004,333.799h20.196c5.633,0,10.199-4.567,10.199-10.199c0-5.632-4.566-10.199-10.199-10.199
		h-20.196c-5.633,0-10.199,4.567-10.199,10.199C300.805,329.232,305.371,333.799,311.004,333.799z"/>
	<path style="fill:#3B404F;" d="M388.272,313.401h-20.196c-5.633,0-10.199,4.567-10.199,10.199c0,5.632,4.566,10.199,10.199,10.199
		h20.196c5.633,0,10.199-4.567,10.199-10.199C398.472,317.968,393.905,313.401,388.272,313.401z"/>
	<path style="fill:#3B404F;" d="M444.757,313.401H424.56c-5.633,0-10.199,4.567-10.199,10.199c0,5.632,4.566,10.199,10.199,10.199
		h20.196c5.633,0,10.199-4.567,10.199-10.199C454.956,317.968,450.39,313.401,444.757,313.401z"/>
	<path style="fill:#3B404F;" d="M311.004,268.311h134.024c5.633,0,10.199-4.567,10.199-10.199c0-5.632-4.566-10.199-10.199-10.199
		H311.004c-5.633,0-10.199,4.567-10.199,10.199C300.805,263.744,305.371,268.311,311.004,268.311z"/>
	<path style="fill:#3B404F;" d="M311.004,202.822h87.785c5.633,0,10.199-4.567,10.199-10.199s-4.566-10.199-10.199-10.199h-87.785
		c-5.633,0-10.199,4.567-10.199,10.199S305.371,202.822,311.004,202.822z"/>
	<path style="fill:#3B404F;" d="M68.848,360.317H253.13c5.633,0,10.199-4.567,10.199-10.199c0-46.352-45.91-84.064-102.34-84.064
		c-56.431,0-102.341,37.712-102.341,84.064C58.648,355.751,63.215,360.317,68.848,360.317z M150.029,287.024v22.734
		c0,5.632,4.566,10.199,10.199,10.199c5.633,0,10.199-4.567,10.199-10.199v-22.87c36.415,3.262,65.646,25.131,71.454,53.03H80.098
		C85.824,312.408,114.322,290.75,150.029,287.024z"/>
	<path style="fill:#3B404F;" d="M160.128,256.143c29.244,0,53.036-23.792,53.036-53.036s-23.792-53.036-53.036-53.036
		s-53.036,23.792-53.036,53.036S130.883,256.143,160.128,256.143z M160.128,170.47c17.996,0,32.637,14.641,32.637,32.637
		s-14.641,32.637-32.637,32.637s-32.637-14.641-32.637-32.637S142.131,170.47,160.128,170.47z"/>
</g>
<g>
</g>
<g>
</g>
<g>
</g>
<g>
</g>
<g>
</g>
<g>
</g>
<g>
</g>
<g>
</g>
<g>
</g>
<g>
</g>
<g>
</g>
<g>
</g>
<g>
</g>
<g>
</g>
<g>
</g>
</svg>
